HIERARCHY
ROOT Hips
{
	OFFSET 8.91173 92.52490 -21.95620
	CHANNELS 6 Xposition Yposition Zposition Zrotation Xrotation Yrotation
	JOINT Spine
	{
		OFFSET 0.00000 14.09320 -1.51142
		CHANNELS 3 Zrotation Xrotation Yrotation
		JOINT Spine1
		{
			OFFSET 0.00000 8.69660 0.00000
			CHANNELS 3 Zrotation Xrotation Yrotation
			JOINT Spine2
			{
				OFFSET 0.00000 8.69660 0.00000
				CHANNELS 3 Zrotation Xrotation Yrotation
				JOINT Spine3
				{
					OFFSET 0.00000 8.69660 0.00000
					CHANNELS 3 Zrotation Xrotation Yrotation
					JOINT Neck
					{
						OFFSET 0.00000 11.18130 1.11813
						CHANNELS 3 Zrotation Xrotation Yrotation
						JOINT Neck1
						{
							OFFSET 0.00000 5.70631 0.00000
							CHANNELS 3 Zrotation Xrotation Yrotation
							JOINT Head
							{
								OFFSET 0.00000 5.70631 0.00000
								CHANNELS 3 Zrotation Xrotation Yrotation
								End site
								{
									OFFSET 0.00000 9.71257 0.00000
								}
							}
						}
					}
					JOINT RightShoulder
					{
						OFFSET 0.00000 7.98668 5.19711
						CHANNELS 3 Zrotation Xrotation Yrotation
						JOINT RightArm
						{
							OFFSET 0.00000 18.31580 0.00000
							CHANNELS 3 Zrotation Xrotation Yrotation
							JOINT RightForeArm
							{
								OFFSET 0.00000 28.87420 0.00000
								CHANNELS 3 Zrotation Xrotation Yrotation
								JOINT RightHand
								{
									OFFSET 0.00000 23.87720 0.00000
									CHANNELS 3 Zrotation Xrotation Yrotation
									JOINT RightHandThumb1
									{
										OFFSET -2.41094 4.67063 3.47303
										CHANNELS 3 Zrotation Xrotation Yrotation
										JOINT RightHandThumb2
										{
											OFFSET 0.00000 3.95207 0.00000
											CHANNELS 3 Zrotation Xrotation Yrotation
											JOINT RightHandThumb3
											{
												OFFSET 0.00000 2.15568 0.00000
												CHANNELS 3 Zrotation Xrotation Yrotation
												End site
												{
													OFFSET 0.00000 1.91616 0.00000
												}
											}
										}
									}
									JOINT RightHandIndex1
									{
										OFFSET 0.00000 12.45500 2.51496
										CHANNELS 3 Zrotation Xrotation Yrotation
										JOINT RightHandIndex2
										{
											OFFSET 0.00000 4.79039 0.00000
											CHANNELS 3 Zrotation Xrotation Yrotation
											JOINT RightHandIndex3
											{
												OFFSET 0.00000 2.63472 0.00000
												CHANNELS 3 Zrotation Xrotation Yrotation
												End site
												{
													OFFSET 0.00000 1.91616 0.00000
												}
											}
										}
									}
									JOINT RightHandMiddle1
									{
										OFFSET 0.00000 12.45500 -0.07984
										CHANNELS 3 Zrotation Xrotation Yrotation
										JOINT RightHandMiddle2
										{
											OFFSET 0.00000 5.38919 0.00000
											CHANNELS 3 Zrotation Xrotation Yrotation
											JOINT RightHandMiddle3
											{
												OFFSET 0.00000 3.11376 0.00000
												CHANNELS 3 Zrotation Xrotation Yrotation
												End site
												{
													OFFSET 0.00000 2.03592 0.00000
												}
											}
										}
									}
									JOINT RightHandRing1
									{
										OFFSET 0.00000 11.07780 -2.67464
										CHANNELS 3 Zrotation Xrotation Yrotation
										JOINT RightHandRing2
										{
											OFFSET 0.00000 4.91015 0.00000
											CHANNELS 3 Zrotation Xrotation Yrotation
											JOINT RightHandRing3
											{
												OFFSET 0.00000 3.11376 0.00000
												CHANNELS 3 Zrotation Xrotation Yrotation
												End site
												{
													OFFSET 0.00000 2.03592 0.00000
												}
											}
										}
									}
									JOINT RightHandPinky1
									{
										OFFSET 0.00000 9.70055 -5.26943
										CHANNELS 3 Zrotation Xrotation Yrotation
										JOINT RightHandPinky2
										{
											OFFSET 0.00000 3.95207 0.00000
											CHANNELS 3 Zrotation Xrotation Yrotation
											JOINT RightHandPinky3
											{
												OFFSET 0.00000 2.15568 0.00000
												CHANNELS 3 Zrotation Xrotation Yrotation
												End site
												{
													OFFSET 0.00000 1.91616 0.00000
												}
											}
										}
									}
								}
							}
						}
					}
					JOINT LeftShoulder
					{
						OFFSET 0.00000 7.98668 5.19711
						CHANNELS 3 Zrotation Xrotation Yrotation
						JOINT LeftArm
						{
							OFFSET 0.00000 18.31580 0.00000
							CHANNELS 3 Zrotation Xrotation Yrotation
							JOINT LeftForeArm
							{
								OFFSET 0.00000 28.87420 0.00000
								CHANNELS 3 Zrotation Xrotation Yrotation
								JOINT LeftHand
								{
									OFFSET 0.00000 23.87720 0.00000
									CHANNELS 3 Zrotation Xrotation Yrotation
									JOINT LeftHandThumb1
									{
										OFFSET 2.41094 4.67063 3.47303
										CHANNELS 3 Zrotation Xrotation Yrotation
										JOINT LeftHandThumb2
										{
											OFFSET 0.00000 3.95207 0.00000
											CHANNELS 3 Zrotation Xrotation Yrotation
											JOINT LeftHandThumb3
											{
												OFFSET 0.00000 2.15568 0.00000
												CHANNELS 3 Zrotation Xrotation Yrotation
												End site
												{
													OFFSET 0.00000 1.60000 0.00000
												}
											}
										}
									}
									JOINT LeftHandIndex1
									{
										OFFSET 0.00000 12.45500 2.51496
										CHANNELS 3 Zrotation Xrotation Yrotation
										JOINT LeftHandIndex2
										{
											OFFSET 0.00000 4.79039 0.00000
											CHANNELS 3 Zrotation Xrotation Yrotation
											JOINT LeftHandIndex3
											{
												OFFSET 0.00000 2.63472 0.00000
												CHANNELS 3 Zrotation Xrotation Yrotation
												End site
												{
													OFFSET 0.00000 1.91616 0.00000
												}
											}
										}
									}
									JOINT LeftHandMiddle1
									{
										OFFSET 0.00000 12.45500 -0.07984
										CHANNELS 3 Zrotation Xrotation Yrotation
										JOINT LeftHandMiddle2
										{
											OFFSET 0.00000 5.38919 0.00000
											CHANNELS 3 Zrotation Xrotation Yrotation
											JOINT LeftHandMiddle3
											{
												OFFSET 0.00000 3.11376 0.00000
												CHANNELS 3 Zrotation Xrotation Yrotation
												End site
												{
													OFFSET 0.00000 2.03592 0.00000
												}
											}
										}
									}
									JOINT LeftHandRing1
									{
										OFFSET 0.00000 11.07780 -2.67464
										CHANNELS 3 Zrotation Xrotation Yrotation
										JOINT LeftHandRing2
										{
											OFFSET 0.00000 4.91015 0.00000
											CHANNELS 3 Zrotation Xrotation Yrotation
											JOINT LeftHandRing3
											{
												OFFSET 0.00000 3.11376 0.00000
												CHANNELS 3 Zrotation Xrotation Yrotation
												End site
												{
													OFFSET 0.00000 2.03592 0.00000
												}
											}
										}
									}
									JOINT LeftHandPinky1
									{
										OFFSET 0.00000 9.70055 -5.26943
										CHANNELS 3 Zrotation Xrotation Yrotation
										JOINT LeftHandPinky2
										{
											OFFSET 0.00000 3.95207 0.00000
											CHANNELS 3 Zrotation Xrotation Yrotation
											JOINT LeftHandPinky3
											{
												OFFSET 0.00000 2.15568 0.00000
												CHANNELS 3 Zrotation Xrotation Yrotation
												End site
												{
													OFFSET 0.00000 1.91616 0.00000
												}
											}
										}
									}
								}
							}
						}
					}
				}
			}
		}
	}
	JOINT RightUpLeg
	{
		OFFSET -10.06560 0.00000 0.00000
		CHANNELS 3 Zrotation Xrotation Yrotation
		JOINT RightLeg
		{
			OFFSET 0.00000 -42.98740 0.00000
			CHANNELS 3 Zrotation Xrotation Yrotation
			JOINT RightFoot
			{
				OFFSET 0.00000 -44.62500 0.00000
				CHANNELS 3 Zrotation Xrotation Yrotation
				JOINT RightForeFoot
				{
					OFFSET 0.00000 -3.74821 0.00000
					CHANNELS 3 Zrotation Xrotation Yrotation
					JOINT RightToeBase
					{
						OFFSET 0.00000 0.00000 14.67920
						CHANNELS 3 Zrotation Xrotation Yrotation
						End site
						{
							OFFSET 0.00000 0.00000 10.36040
						}
					}
				}
			}
		}
	}
	JOINT LeftUpLeg
	{
		OFFSET 10.06560 0.00000 0.00000
		CHANNELS 3 Zrotation Xrotation Yrotation
		JOINT LeftLeg
		{
			OFFSET 0.00000 -42.98740 0.00000
			CHANNELS 3 Zrotation Xrotation Yrotation
			JOINT LeftFoot
			{
				OFFSET 0.00000 -44.62500 0.00000
				CHANNELS 3 Zrotation Xrotation Yrotation
				JOINT LeftForeFoot
				{
					OFFSET 0.00000 -3.74821 0.00000
					CHANNELS 3 Zrotation Xrotation Yrotation
					JOINT LeftToeBase
					{
						OFFSET 0.00000 0.00000 14.67920
						CHANNELS 3 Zrotation Xrotation Yrotation
						End site
						{
							OFFSET 0.00000 0.00000 10.67280
						}
					}
				}
			}
		}
	}
}
MOTION
Frames: 4
Frame Time: 0.083333333
15.7099 88.4755 -77.0501 -9.2061 0.220309 -177.804 -8.19996 0.584265 -0.647346 -1.30097 4.10981 0.500394 -1.95143 -1.33713 -1.58408 0.918313 1.75342 -1.33108 2.30391 13.5986 -2.61385 0.981076 3.39819 -7.89023 1.05335 -10.4226 -0.670725 90 0 0 78.591 5.38073 -27.6884 0.000107457 70.3832 48.3507 -3.85348 -5.95112 1.13373e-06 5.63743 28.1965 -2.67036 3.06904e-32 -3.97569e-16 4.42296e-15 9.31058e-32 -1.19271e-15 4.47266e-15 -67.8412 -5.56597e-15 -1.27222e-14 -6.36111e-15 3.97569e-15 3.18055e-15 -5.56597e-15 -7.95139e-16 -0.0 -63.9804 -1.59028e-15 -9.54166e-15 4.77083e-15 7.95139e-16 -0.0 4.41391e-31 3.97569e-15 -6.36111e-15 -49.2 -3.18055e-15 -0.0 -8.82781e-32 -1.59028e-15 -3.18055e-15 -3.18055e-15 0.0 -0.0 -36.2892 -6.36111e-15 -3.18055e-15 3.18055e-15 -9.54166e-15 -6.36111e-15 -3.18055e-15 3.18055e-15 -3.18055e-15 -90 0 0 -75.43 4.90963 47.3424 9.16716e-07 75.1987 -32.2207 -9.72697 -5.39854 1.21455e-06 -39.5091 1.81505 1.4961 -1.59028e-15 0.0 -6.36111e-15 -4.41391e-32 -7.95139e-16 -3.18055e-15 22.6981 3.18055e-15 -4.77083e-15 1.59028e-15 6.36111e-15 1.59028e-15 1.59028e-15 6.36111e-15 1.59028e-15 26.0995 3.18055e-15 -6.36111e-15 4.77083e-15 -6.36111e-15 -2.38542e-15 -7.94503e-31 -1.90833e-14 -2.38542e-15 -31.0905 3.18055e-15 1.27222e-14 -4.77083e-15 3.18055e-15 1.27222e-14 -4.77083e-15 -1.59028e-15 -0.0 -84.5059 -9.54166e-15 1.59028e-14 1.27222e-14 6.36111e-15 1.27222e-14 9.54166e-15 -3.18055e-15 6.36111e-15 -11.9541 -22.0497 -4.0192 -1.83866e-16 29.901 -2.29308e-16 2.86428 -17.7743 8.23227 0.0 0.0 -7.95139e-16 3.97569e-16 7.29294 -0.0 -11.9021 -7.17938 9.0291 4.23488e-16 21.9622 -8.57357e-15 5.37252 -18.5544 4.19911 0.0 0.0 -3.18055e-15 -1.31559e-16 1.21085 -3.18127e-15
15.6804 88.5537 -76.9541 -9.29879 -0.0359211 -177.796 -8.24445 0.748728 -0.677726 -1.23775 4.08857 0.469324 -1.86056 -1.28911 -1.96214 1.02771 1.77346 -1.41196 2.49861 13.2731 -2.63123 1.29419 3.36253 -7.35237 1.49129 -10.3557 -0.68675 90 0 0 79.0142 4.54765 -26.6198 -0.0201994 74.7245 53.2418 -4.02911 -1.55751 0.000596353 5.85994 26.5216 -2.62329 -7.95139e-16 -3.97569e-16 1.19271e-15 -7.95139e-16 -1.59028e-15 4.32357e-15 -67.1382 9.93923e-15 -6.36111e-15 4.77083e-15 -1.98785e-15 3.18055e-15 1.59028e-15 -2.38542e-15 -6.36111e-15 -64.2343 4.77083e-15 -9.54166e-15 1.59028e-15 -3.18055e-15 -3.18055e-15 -1.59028e-15 -7.95139e-16 3.18055e-15 -47.5421 -4.77083e-15 -3.18055e-15 -3.18055e-15 -3.18055e-15 -0.0 -3.18055e-15 -9.54166e-15 6.36111e-15 -21.2325 3.18055e-15 -3.18055e-15 -3.18055e-15 3.18055e-15 -6.36111e-15 -6.36111e-15 6.36111e-15 6.36111e-15 -90 0 0 -75.432 4.77855 47.0033 0.00289805 74.9039 -40.4009 -8.91524 -3.05116 0.000930116 -38.4664 8.60249 6.76874 -6.36111e-15 3.18055e-15 -6.36111e-15 0.0 1.59028e-15 -0.0 28.2638 0.0 -7.95139e-15 1.59028e-15 -3.18055e-15 -5.96354e-16 -2.78299e-15 0.0 -1.59028e-15 29.7881 -9.54166e-15 -6.75868e-15 1.98785e-15 -3.18055e-15 -2.38542e-15 -7.95139e-16 0.0 -4.77083e-15 -18.6102 -6.36111e-15 -0.0 -6.36111e-15 3.18055e-15 -3.18055e-15 -6.36111e-15 3.18055e-15 -0.0 -72.012 -1.19271e-14 3.18055e-15 1.59028e-15 -3.18055e-15 -6.36111e-15 -1.59028e-15 0.0 -0.0 -12.0139 -21.9788 -3.68667 1.49077e-16 29.3584 9.12306e-16 3.69757 -19.0184 7.83656 -1.98785e-16 1.59028e-15 -0.0 2.59575e-16 4.37189 -7.97459e-16 -12.0731 -7.16443 9.01345 1.34354e-15 21.3096 3.41397e-15 5.37806 -18.2401 4.12263 -2.98177e-16 -3.97569e-16 -3.18055e-15 -3.8926e-16 1.93943 -3.18238e-15
15.6247 88.6332 -76.9724 -9.30882 -0.0766659 -177.604 -8.1779 0.854091 -0.738035 -1.15935 4.09012 0.432216 -1.77679 -1.29459 -2.35937 1.2928 1.75426 -1.48015 2.8909 13.5021 -3.28338 1.41719 3.52677 -8.05334 1.63031 -10.1005 -0.753007 90 0 0 79.8035 5.52785 -22.7371 2.07253e-05 76.3215 48.144 -3.04822 3.19852 -2.15321e-06 2.00624 26.4049 -0.892487 -1.10348e-31 -1.59028e-15 -3.97569e-15 -0.0 -1.59028e-15 -0.0 -62.7943 7.15625e-15 -7.95139e-15 -3.18055e-15 9.54166e-15 1.59028e-15 -3.18055e-15 3.97569e-15 -1.59028e-15 -60.5052 4.77083e-15 -9.54166e-15 6.36111e-15 1.59028e-15 -1.59028e-15 2.20695e-31 -7.95139e-15 1.59028e-15 -43.5828 1.59028e-15 -9.54166e-15 -6.36111e-15 -1.59028e-15 1.59028e-15 3.18055e-15 -1.59028e-15 1.59028e-15 -12.456 1.59028e-15 -3.97569e-15 3.18055e-15 1.59028e-15 -7.95139e-16 2.20695e-31 3.18055e-15 -3.97569e-15 -90 0 0 -75.7607 4.74 46.0969 3.75143e-06 74.2407 -44.4723 -7.57495 -1.74985 2.75628e-06 -36.7655 12.6937 9.32361 -6.36111e-15 1.59028e-15 6.36111e-15 -3.18055e-15 0.0 3.18055e-15 30.4704 -3.18055e-15 -1.98785e-15 7.95139e-16 -1.27222e-14 -1.59028e-15 1.98785e-15 3.18055e-15 2.78299e-15 31.2197 -6.36111e-15 -3.97569e-15 7.95139e-16 -3.18055e-15 4.37326e-15 -1.59028e-15 3.18055e-15 1.59028e-15 -13.7451 -6.36111e-15 -0.0 -9.54166e-15 3.18055e-15 -0.0 -1.05934e-30 6.36111e-15 9.54166e-15 -65.871 -1.09332e-14 3.18055e-15 -2.5842e-15 1.78906e-15 -0.0 3.97569e-16 1.59028e-15 -3.18055e-15 -12.1053 -21.8439 -3.73596 -4.48587e-16 29.7038 -1.602e-15 3.88523 -24.7352 6.68245 -1.98785e-16 0.0 -1.59028e-15 -1.86857e-16 0.859441 -7.95228e-16 -12.197 -6.85174 8.76901 -1.21705e-15 20.6841 1.01991e-14 5.45978 -17.9213 4.15314 -4.96962e-16 1.19271e-15 -0.0 -1.57797e-16 2.10332 1.59135e-15
15.6624 88.6673 -77.1054 -9.08265 -0.000883507 -177.893 -7.8932 0.801258 -0.742087 -1.11255 4.09605 0.412472 -1.70393 -1.28953 -2.3253 1.43733 1.78423 -1.46117 3.10056 13.739 -3.64758 1.38141 3.56139 -8.85168 1.5558 -10.0756 -0.799473 90 0 0 79.1723 7.77339 -20.4947 -0.0100015 73.9631 47.8424 -3.95228 3.51535 0.000204394 0.0218172 28.7702 -0.0101631 1.59028e-15 0.0 -6.36111e-15 1.59028e-15 0.0 -3.97569e-16 -60.2835 7.55382e-15 -9.54166e-15 -3.18055e-15 1.19271e-15 -0.0 0.0 7.55382e-15 -0.0 -58.1156 3.97569e-15 -1.43125e-14 -8.82781e-32 -1.59028e-15 -3.18055e-15 -4.41391e-32 -1.59028e-15 -1.59028e-15 -41.4679 3.18055e-15 -1.27222e-14 -6.36111e-15 -7.95139e-16 -0.0 -0.0 -2.38542e-15 -0.0 -11.5036 3.18055e-15 -3.97569e-15 -9.54166e-15 0.0 3.97569e-15 -6.36111e-15 -1.59028e-15 7.95139e-16 -90 0 0 -75.7826 4.80766 45.6685 0.000442626 74.1381 -43.0536 -5.28043 -0.311978 0.000389033 -35.7404 13.8325 9.76259 -6.36111e-15 0.0 -3.18055e-15 9.54166e-15 -1.59028e-15 3.18055e-15 28.7762 1.27222e-14 -9.14409e-15 3.97569e-16 3.18055e-15 1.19271e-15 3.97569e-16 0.0 3.97569e-15 28.1786 6.36111e-15 -7.95139e-15 1.19271e-15 0.0 1.98785e-15 -2.78299e-15 3.18055e-15 2.38542e-15 -14.7275 9.54166e-15 9.54166e-15 3.18055e-15 -6.36111e-15 -3.18055e-15 1.27222e-14 -3.18055e-15 -6.36111e-15 -63.0027 -7.35503e-15 2.22639e-14 -2.64834e-31 1.19271e-15 1.27222e-14 -9.93923e-16 7.95139e-16 -0.0 -11.4247 -21.7655 -2.38567 1.26748e-15 29.8565 8.99633e-15 2.63219 -27.3745 5.334 1.98785e-16 0.0 -0.0 0.0 0.12987 -0.0 -11.9676 -6.74892 8.73325 -2.50756e-17 20.7143 8.50092e-15 5.49419 -17.941 4.48549 9.93923e-17 3.97569e-16 -0.0 -1.98785e-16 1.84625 -0.0
